<svg width="38" height="38" viewBox="0 0 38 38" fill="none" xmlns="http://www.w3.org/2000/svg">
<circle cx="19.8925" cy="19.6824" r="14.9389" fill="#949494"/>
<path d="M4.30244 33.432H17.3854C18.4436 33.432 18.7767 32.0032 17.8276 31.5351L9.3403 27.3499C8.97142 27.168 8.52879 27.2305 8.2247 27.5074L3.62912 31.6927C2.95365 32.3078 3.38885 33.432 4.30244 33.432Z" fill="#949494"/>
<path d="M28 20C33.5228 20 38 15.5228 38 10C38 4.47715 33.5228 0 28 0C22.4772 0 18 4.47715 18 10C18 15.5228 22.4772 20 28 20Z" fill="#949494"/>
<path d="M31 7L25 13" stroke="#F7E4FF" stroke-width="2" stroke-linecap="round" stroke-linejoin="round"/>
<path d="M25 7L31 13" stroke="#F7E4FF" stroke-width="2" stroke-linecap="round" stroke-linejoin="round"/>
</svg>
